<svg viewBox="0 0 200 200" ><title id="leni">Leni</title><desc id="desc">Choose parts to build your leni</desc><g id="toni"><path fill="#3baacd" d="M60.7 164.84c.88-23.22-16.05-37.56-15.54-66.66.25-14.54 4.14-52.49 49.77-58.84 19.43-2.71 67.12 8.17 61.4 60.34-3.72 34-17.88 41.83-18.66 64.87"></path><path fill="#131726" d="M62.2 164.84a55 55 0 00-2.82-18.61c-1.88-5.9-4.39-11.56-6.6-17.33a91.49 91.49 0 01-5.48-19.8 74.26 74.26 0 01-.47-15.2 70.06 70.06 0 014.76-21.76 48.29 48.29 0 0117.16-21.72A55.54 55.54 0 0184.85 43a58.42 58.42 0 0114.59-2.5 62.94 62.94 0 0122.12 3.5 52.72 52.72 0 0122 14c7 7.74 10.76 17.77 11.57 28.11a84 84 0 01-1.47 21.69 105.06 105.06 0 01-5.51 19.36c-3.77 9.63-9.12 18.72-11 29a56.91 56.91 0 00-.92 8.33c-.07 1.94 2.93 1.93 3 0a53.57 53.57 0 013.08-15.88c1.72-4.85 4-9.47 6.06-14.17C154 121.68 157.74 108 158.26 94c.42-11.45-1.95-23.15-8.45-32.73a51.59 51.59 0 00-21.35-17.64 68.05 68.05 0 00-24.12-6 62.06 62.06 0 00-29.4 5.91 50.81 50.81 0 00-22.86 20.78 65.21 65.21 0 00-7.69 23.92 77.94 77.94 0 001.89 30.63c3.35 12.41 10.11 23.79 12.3 36.53a45.93 45.93 0 01.62 9.44c-.07 1.93 2.93 1.93 3 0z"></path><path fill="#fcee21" d="M58.65 147.13s9.7-5.83 2.42-20.07C58.9 122.81 53 119 48.88 121c0 0 6.32 18 9.77 26.13zM69.26 48.77s1 7.15-2.6 11.46c-1.88 2.25-7.86 8.57-13.88 7.05a46.23 46.23 0 0116.48-18.51zM96.18 45.56c-.58 2.55 2 5.19 6.87 3.44 4.6-1.63 3.7-5.58 2-6.46-3.05-1.62-8.05-.47-8.87 3.02zM155.11 78.33s-9.33 1.18-12.13-7.82c-1.25-4-.15-9 1.79-12.67 0 0 9.14 10.16 10.34 20.49zM147.08 110.11c-1.51 2.57-2.12 7.34-1.24 9.88s4.06 4.86 4.06 4.86c2.39-5.47 5.75-19 5.75-19-5.03.41-6.83 1.85-8.57 4.26zM58.44 92.14a3.14 3.14 0 003.62 2.59 3.42 3.42 0 002.23-4 3.08 3.08 0 00-3.81-2.25 3.24 3.24 0 00-2 3.7M124.61 53.55a2.36 2.36 0 002.3 2.19 3.14 3.14 0 003-1.74 2.66 2.66 0 00-3.15-3 2.77 2.77 0 00-2.15 2.55z"></path><path fill="#ffca30" d="M138 164.6l-.61 5c-10.83.24-72.54.06-77-.06-.18-1.32.09-3.55-.25-5-.06.06 46.74.29 77.86.06z"></path><path fill="#131726" d="M136.49 164.6l-.61 5 1.5-1.5c-9.85.21-19.71.12-29.56.12q-18.69 0-37.38-.1c-3.37 0-6.75 0-10.11-.08l1.5 1.5c-.2-1.79.06-3.58-.3-5.36l-1.45 1.89 17.62.07h38.08q11.1 0 22.21-.09a1.5 1.5 0 000-3c-13.27.1-26.55.11-39.82.1q-16 0-31.93-.07h-6.16a1.53 1.53 0 00-1.45 1.9c.31 1.5 0 3.06.2 4.57a1.52 1.52 0 001.5 1.5c8.34.21 16.7.12 25 .14q19.32.06 38.64 0c4.45 0 8.91 0 13.36-.1a1.54 1.54 0 001.5-1.5l.61-5c.28-1.9-2.72-1.89-2.95.01z"></path><path fill="#131726" d="M62.2 164.84a55 55 0 00-2.82-18.61c-1.88-5.9-4.39-11.56-6.6-17.33a91.49 91.49 0 01-5.48-19.8 74.26 74.26 0 01-.47-15.2 70.06 70.06 0 014.76-21.76 48.29 48.29 0 0117.16-21.72A55.54 55.54 0 0184.85 43a58.42 58.42 0 0114.59-2.5 62.94 62.94 0 0122.12 3.5 52.72 52.72 0 0122 14c7 7.74 10.76 17.77 11.57 28.11a84 84 0 01-1.47 21.69 105.06 105.06 0 01-5.51 19.36c-3.77 9.63-9.12 18.72-11 29a56.91 56.91 0 00-.92 8.33c-.07 1.94 2.93 1.93 3 0a53.57 53.57 0 013.08-15.88c1.72-4.85 4-9.47 6.06-14.17C154 121.68 157.74 108 158.26 94c.42-11.45-1.95-23.15-8.45-32.73a51.59 51.59 0 00-21.35-17.64 68.05 68.05 0 00-24.12-6 62.06 62.06 0 00-29.4 5.91 50.81 50.81 0 00-22.86 20.78 65.21 65.21 0 00-7.69 23.92 77.94 77.94 0 001.89 30.63c3.35 12.41 10.11 23.79 12.3 36.53a45.93 45.93 0 01.62 9.44c-.07 1.93 2.93 1.93 3 0z"></path></g><g id="head"><path fill="#69b3b2" d="M60.7 164.84c.88-23.22-16.05-37.56-15.54-66.66.25-14.54 4.14-52.49 49.77-58.84 19.43-2.71 67.12 8.17 61.4 60.34-3.72 34-17.88 41.83-18.66 64.87"></path><path fill="#141827" d="M62.2 164.84a55 55 0 00-2.82-18.61c-1.88-5.9-4.39-11.56-6.6-17.33a91.49 91.49 0 01-5.48-19.8 74.26 74.26 0 01-.47-15.2 70.06 70.06 0 014.76-21.76 48.29 48.29 0 0117.16-21.72A55.54 55.54 0 0184.85 43a58.42 58.42 0 0114.59-2.5 62.94 62.94 0 0122.12 3.5 52.72 52.72 0 0122 14c7 7.74 10.76 17.77 11.57 28.11a84 84 0 01-1.47 21.69 105.06 105.06 0 01-5.51 19.36c-3.77 9.63-9.12 18.72-11 29a56.91 56.91 0 00-.92 8.33c-.07 1.94 2.93 1.93 3 0a53.57 53.57 0 013.08-15.88c1.72-4.85 4-9.47 6.06-14.17C154 121.68 157.74 108 158.26 94c.42-11.45-1.95-23.15-8.45-32.73a51.59 51.59 0 00-21.35-17.64 68.05 68.05 0 00-24.12-6 62.06 62.06 0 00-29.4 5.91 50.81 50.81 0 00-22.86 20.78 65.21 65.21 0 00-7.69 23.92 77.94 77.94 0 001.89 30.63c3.35 12.41 10.11 23.79 12.3 36.53a45.93 45.93 0 01.62 9.44c-.07 1.93 2.93 1.93 3 0z"></path><g fill="#151b2d" opacity=".16"><path d="M58.65 147.13s9.7-5.83 2.42-20.07C58.9 122.81 53 119 48.88 121c0 0 6.32 18 9.77 26.13z"></path><path d="M69.26 48.77s1 7.15-2.6 11.46c-1.88 2.25-7.86 8.57-13.88 7.05a46.23 46.23 0 0116.48-18.51z"></path><path d="M96.18 45.56c-.58 2.55 2 5.19 6.87 3.44 4.6-1.63 3.7-5.58 2-6.46-3.05-1.62-8.05-.47-8.87 3.02z"></path><path d="M155.11 78.33s-9.33 1.18-12.13-7.82c-1.25-4-.15-9 1.79-12.67 0 0 9.14 10.16 10.34 20.49z"></path><path d="M147.08 110.11c-1.51 2.57-2.12 7.34-1.24 9.88s4.06 4.86 4.06 4.86c2.39-5.47 5.75-19 5.75-19-5.03.41-6.83 1.85-8.57 4.26z"></path><path d="M58.44 92.14a3.14 3.14 0 003.62 2.59 3.42 3.42 0 002.23-4 3.08 3.08 0 00-3.81-2.25 3.24 3.24 0 00-2 3.7"></path><path d="M124.61 53.55a2.36 2.36 0 002.3 2.19 3.14 3.14 0 003-1.74 2.66 2.66 0 00-3.15-3 2.77 2.77 0 00-2.15 2.55z"></path></g><path fill="#ffcb31" d="M138 164.6l-.61 5c-10.63.23-73 .05-77-.06-.18-1.32.09-3.55-.25-5-.06.06 46.74.29 77.86.06z"></path><path fill="#141827" d="M136.49 164.6l-.61 5 1.5-1.5c-9.85.21-19.72.12-29.58.11q-18.73 0-37.49-.09c-3.33 0-6.66 0-10-.08l1.5 1.5c-.2-1.79.06-3.58-.3-5.36l-1.45 1.89 17.62.07h38.08q11.1 0 22.21-.09a1.5 1.5 0 000-3c-13.27.1-26.55.11-39.82.1q-16 0-31.93-.07h-6.16a1.53 1.53 0 00-1.45 1.9c.31 1.5 0 3.06.2 4.57a1.52 1.52 0 001.5 1.5c8.29.21 16.6.11 24.9.13q19.39.06 38.8 0c4.45 0 8.9 0 13.35-.1a1.54 1.54 0 001.5-1.5l.61-5c.25-1.89-2.75-1.88-2.98.02z"></path><path fill="#141827" d="M62.2 164.84a55 55 0 00-2.82-18.61c-1.88-5.9-4.39-11.56-6.6-17.33a91.49 91.49 0 01-5.48-19.8 74.26 74.26 0 01-.47-15.2 70.06 70.06 0 014.76-21.76 48.29 48.29 0 0117.16-21.72A55.54 55.54 0 0184.85 43a58.42 58.42 0 0114.59-2.5 62.94 62.94 0 0122.12 3.5 52.72 52.72 0 0122 14c7 7.74 10.76 17.77 11.57 28.11a84 84 0 01-1.47 21.69 105.06 105.06 0 01-5.51 19.36c-3.77 9.63-9.12 18.72-11 29a56.91 56.91 0 00-.92 8.33c-.07 1.94 2.93 1.93 3 0a53.57 53.57 0 013.08-15.88c1.72-4.85 4-9.47 6.06-14.17C154 121.68 157.74 108 158.26 94c.42-11.45-1.95-23.15-8.45-32.73a51.59 51.59 0 00-21.35-17.64 68.05 68.05 0 00-24.12-6 62.06 62.06 0 00-29.4 5.91 50.81 50.81 0 00-22.86 20.78 65.21 65.21 0 00-7.69 23.92 77.94 77.94 0 001.89 30.63c3.35 12.41 10.11 23.79 12.3 36.53a45.93 45.93 0 01.62 9.44c-.07 1.93 2.93 1.93 3 0z"></path></g><g><g id="eye"><path fill="#f8f3dc" d="M74.18 72.55c-2.33 8.29-.5 20.75 3.58 27.15s10.57 9.52 18.14 10.77c9.89 1.64 20.75.57 27.51-7.42 7.06-8.35 7.67-18.75 4.46-29.54-3.4-11.4-8.69-18.23-21.65-20.5-9.62-1.69-28.11 1.07-32.04 19.54z"></path><path fill="#141827" d="M72.73 72.15c-1.82 6.67-1.3 14.12.54 20.73S78.8 105 84.76 108.31s13.43 4.55 20.24 4.29c7-.27 14-2.54 18.83-7.77a28.78 28.78 0 007.39-20.52 45.33 45.33 0 00-5.4-19.9 24 24 0 00-11.95-10.8A33.81 33.81 0 0099 51.15c-10.73.67-20.71 6.15-24.85 16.43a29 29 0 00-1.38 4.57c-.41 1.89 2.48 2.69 2.89.8a22.89 22.89 0 017.89-13.28 26.65 26.65 0 0112.3-5.17c8.86-1.47 19.4.74 25.19 8 3.46 4.37 5.32 10.11 6.42 15.49 1.38 6.7 1 13.84-2.34 19.91a21.93 21.93 0 01-15.41 11.12 38.48 38.48 0 01-19-1.41A21.33 21.33 0 0177.48 96a39 39 0 01-2.66-18.7 26.85 26.85 0 01.8-4.35 1.5 1.5 0 00-2.89-.8z"></path><path fill="#eae3ca" class="toni-eye" d="M78.77 99.59s4.42 8.16 17.13 10.33c7.11 1.21 18.86 1.21 27-7.43 4.73-5 8.22-15.66 4.29-28.69 0 0 2.16 48.4-48.42 25.79z"></path><ellipse cx="101.16" cy="84.55" fill="#141827" rx="3.41" ry="3.7"></ellipse><path fill="#141827" d="M72.73 72.15c-1.82 6.67-1.3 14.12.54 20.73S78.8 105 84.76 108.31s13.43 4.55 20.24 4.29c7-.27 14-2.54 18.83-7.77a28.78 28.78 0 007.39-20.52 45.33 45.33 0 00-5.4-19.9 24 24 0 00-11.95-10.8A33.81 33.81 0 0099 51.15c-10.73.67-20.71 6.15-24.85 16.43a29 29 0 00-1.38 4.57c-.41 1.89 2.48 2.69 2.89.8a22.89 22.89 0 017.89-13.28 26.65 26.65 0 0112.3-5.17c8.86-1.47 19.4.74 25.19 8 3.46 4.37 5.32 10.11 6.42 15.49 1.38 6.7 1 13.84-2.34 19.91a21.93 21.93 0 01-15.41 11.12 38.48 38.48 0 01-19-1.41A21.33 21.33 0 0177.48 96a39 39 0 01-2.66-18.7 26.85 26.85 0 01.8-4.35 1.5 1.5 0 00-2.89-.8z"></path></g></g><!----><g><g id="mouth-smile"><path fill="#1f2740" d="M135.89 126.14c-41.46 22.24-72.36-3.07-68.37-1.2 25.81 14.59 57.31 5.88 68.37 1.2"></path><path fill="#141827" d="M135.13 124.85c-11.22 6-23.72 9.45-36.5 8.94A60.66 60.66 0 0175 128a40 40 0 01-5.78-3.34c-.11-.07-.58-.45-.17-.12l-.31-.25c-.07-.07-.31-.36-.39-.38 1.26.23-2.26 3-1.07 2.39-1.11.56-.28-.22-.26 0s-.34-.23-.21-.09a4.77 4.77 0 001.11.61c.87.47 1.74.91 2.63 1.32 11.24 5.32 23.86 7 36.19 6.13a93.29 93.29 0 0029.59-6.71 1.55 1.55 0 001-1.85 1.51 1.51 0 00-1.84-1 90.65 90.65 0 01-27.18 6.49c-12.93 1.12-26.32-.45-38-6.43-1.06-.55-3-2.18-4.21-1a1.72 1.72 0 00.31 2.52 21.63 21.63 0 004.83 3.19 62.3 62.3 0 0023.26 7c12.63 1.32 25.34-1.25 36.86-6.45 1.79-.81 3.54-1.68 5.27-2.6s.19-3.5-1.52-2.59z"></path><path fill="#fff" d="M77 129.71c-.56 3.16-2.06 6.4-.78 9.12s4.77 4.77 7.42 3.74c3-1.15 3.9-6.48 4.36-9.89"></path><path fill="#141827" d="M75.55 129.31c-.48 2.6-1.6 5.24-1.29 7.92a8.09 8.09 0 003.85 5.86 6.78 6.78 0 006.4.73c1.82-.83 2.84-2.71 3.53-4.48a28 28 0 001.4-6.26 1.55 1.55 0 00-1-1.85 1.51 1.51 0 00-1.84 1.05 34.46 34.46 0 01-.93 4.82 11.16 11.16 0 01-.78 2.12 8.51 8.51 0 01-.54.92l-.17.24c0-.06.15-.18 0 0a4.78 4.78 0 01-.39.39c-.17.17.09 0-.17.14l-.41.23c.26-.13-.27.08-.35.1h-.24c-.11 0-.11 0 0 0h-.16a4.16 4.16 0 01-2-.44 5.32 5.32 0 01-3-3.65 8.51 8.51 0 01.27-3.29c.29-1.28.66-2.55.9-3.84a1.54 1.54 0 00-1-1.85 1.51 1.51 0 00-1.84 1.05z"></path><path fill="#fff" d="M96.18 133.78c-.16 7.41 1 11 5.72 10.75 5.12-.37 5.79-7.37 5.79-10.88"></path><path fill="#141827" d="M94.68 133.78a25.49 25.49 0 00.63 7.45 6.37 6.37 0 003.23 4.21 7 7 0 006.22-.25 8.59 8.59 0 003.6-5.12 22.07 22.07 0 00.83-6.42 1.5 1.5 0 00-3 0c0 .77 0 1.53-.1 2.29l-.06.6v.39a14.16 14.16 0 01-.59 2.58l-.21.59-.09.23c.14-.34-.07.15-.1.21a9 9 0 01-.61 1l-.14.19c.23-.3 0 0-.06.05a5.66 5.66 0 01-.49.49l-.17.15c.29-.24 0 0-.07 0l-.51.29c-.33.17.2-.07 0 0l-.29.09-.3.08c-.07 0-.52.1-.16.05a6 6 0 01-1.2 0h-.28c-.22 0 .37.08 0 0s-.39-.08-.59-.14-.56-.27-.17-.05l-.4-.22-.23-.15s.27.24.09.07-.27-.24-.39-.38l-.18-.21c-.06-.07.18.29.06.08l-.26-.42-.23-.46c.18.36 0 0 0 0l-.11-.31a11.81 11.81 0 01-.36-1.42v-.33c0-.11-.08-.54 0-.22l-.09-.88a40.8 40.8 0 01-.09-4.14c0-1.93-3-1.93-3 0z"></path><path fill="#fff" d="M116.53 132.29c0 4.94 0 9.87 5.37 9.87 5.69 0 5.69-7.54 5.69-12.45"></path><path fill="#141827" d="M115 132.29c0 4.08 0 10.05 5 11.17a6.73 6.73 0 006.2-1.46 9.5 9.5 0 002.46-5.34 40.49 40.49 0 00.43-7 1.5 1.5 0 00-3 0 48.49 48.49 0 01-.2 5.26v.37c0 .28.06-.35 0 .1l-.09.57a12.91 12.91 0 01-.31 1.37l-.16.51-.09.26-.07.18-.08.18-.11.22a5.89 5.89 0 01-.32.54l-.17.25c-.12.18.16-.18 0 0l-.37.39c0 .05-.12.1-.17.16-.26.26.16-.11 0 0s-.38.23-.57.34-.26.1 0 0l-.24.09a5.09 5.09 0 01-.56.14h-1.18a5.41 5.41 0 01-1.12-.24c-.27-.08-.09 0 0 0l-.3-.15-.27-.17c-.24-.14.07.08 0 0a3.24 3.24 0 01-1-1.51 9.78 9.78 0 01-.36-1.44l-.06-.36v-.13c0-.29-.05-.57-.07-.86-.08-1.15-.08-2.31-.08-3.47a1.5 1.5 0 00-3 0z"></path><path fill="#ededee" d="M96.76 135.5s2.36-1.89 10.68-1.27l-.16-.9-10.71.33s-.41-.29.19 1.84z"></path><path fill="#ededee" d="M77 131.12s1.45-.7 10.27 2.53l.19-1.29-10.08-2.52s-.56-.93-.38 1.28z"></path><path fill="#ededee" d="M117.36 134s1.6-2.87 9.61-3.38l.07-.89-9.8 2.32s-.24-.62.12 1.95z"></path><path fill="#141827" d="M75.55 129.31c-.48 2.6-1.6 5.24-1.29 7.92a8.09 8.09 0 003.85 5.86 6.78 6.78 0 006.4.73c1.82-.83 2.84-2.71 3.53-4.48a28 28 0 001.4-6.26 1.55 1.55 0 00-1-1.85 1.51 1.51 0 00-1.84 1.05 34.46 34.46 0 01-.93 4.82 11.16 11.16 0 01-.78 2.12 8.51 8.51 0 01-.54.92l-.17.24c0-.06.15-.18 0 0a4.78 4.78 0 01-.39.39c-.17.17.09 0-.17.14l-.41.23c.26-.13-.27.08-.35.1h-.24c-.11 0-.11 0 0 0h-.16a4.16 4.16 0 01-2-.44 5.32 5.32 0 01-3-3.65 8.51 8.51 0 01.27-3.29c.29-1.28.66-2.55.9-3.84a1.54 1.54 0 00-1-1.85 1.51 1.51 0 00-1.84 1.05z"></path><path fill="#141827" d="M115 132.29c0 4.08 0 10.05 5 11.17a6.73 6.73 0 006.2-1.46 9.5 9.5 0 002.46-5.34 40.49 40.49 0 00.43-7 1.5 1.5 0 00-3 0 48.49 48.49 0 01-.2 5.26v.37c0 .28.06-.35 0 .1l-.09.57a12.91 12.91 0 01-.31 1.37l-.16.51-.09.26-.07.18-.08.18-.11.22a5.89 5.89 0 01-.32.54l-.17.25c-.12.18.16-.18 0 0l-.37.39c0 .05-.12.1-.17.16-.26.26.16-.11 0 0s-.38.23-.57.34-.26.1 0 0l-.24.09a5.09 5.09 0 01-.56.14h-1.18a5.41 5.41 0 01-1.12-.24c-.27-.08-.09 0 0 0l-.3-.15-.27-.17c-.24-.14.07.08 0 0a3.24 3.24 0 01-1-1.51 9.78 9.78 0 01-.36-1.44l-.06-.36v-.13c0-.29-.05-.57-.07-.86-.08-1.15-.08-2.31-.08-3.47a1.5 1.5 0 00-3 0z"></path><path fill="#141827" d="M94.68 133.78a25.49 25.49 0 00.63 7.45 6.37 6.37 0 003.23 4.21 7 7 0 006.22-.25 8.59 8.59 0 003.6-5.12 22.07 22.07 0 00.83-6.42 1.5 1.5 0 00-3 0c0 .77 0 1.53-.1 2.29l-.06.6v.39a14.16 14.16 0 01-.59 2.58l-.21.59-.09.23c.14-.34-.07.15-.1.21a9 9 0 01-.61 1l-.14.19c.23-.3 0 0-.06.05a5.66 5.66 0 01-.49.49l-.17.15c.29-.24 0 0-.07 0l-.51.29c-.33.17.2-.07 0 0l-.29.09-.3.08c-.07 0-.52.1-.16.05a6 6 0 01-1.2 0h-.28c-.22 0 .37.08 0 0s-.39-.08-.59-.14-.56-.27-.17-.05l-.4-.22-.23-.15s.27.24.09.07-.27-.24-.39-.38l-.18-.21c-.06-.07.18.29.06.08l-.26-.42-.23-.46c.18.36 0 0 0 0l-.11-.31a11.81 11.81 0 01-.36-1.42v-.33c0-.11-.08-.54 0-.22l-.09-.88a40.8 40.8 0 01-.09-4.14c0-1.93-3-1.93-3 0z"></path></g></g><!----><!----><!----></svg>